HIERARCHY
ROOT Hips
{
	OFFSET 0.00 0.00 0.00
	CHANNELS 6 Xposition Yposition Zposition Xrotation Yrotation Zrotation
	JOINT Spine
	{
		OFFSET 0.00000 1.72282 2.58423
		CHANNELS 3 Xrotation Yrotation Zrotation
		JOINT Spine1
		{
			OFFSET 0.00000 0.59833 3.39329
			CHANNELS 3 Xrotation Yrotation Zrotation
			JOINT Spine2
			{
				OFFSET 0.00000 0.30031 3.43252
				CHANNELS 3 Xrotation Yrotation Zrotation
				JOINT Spine3
				{
					OFFSET 0.00000 0.00000 3.44564
					CHANNELS 3 Xrotation Yrotation Zrotation
					JOINT Neck
					{
						OFFSET 0.00000 -1.29210 9.04479
						CHANNELS 3 Xrotation Yrotation Zrotation
						JOINT Head
						{
							OFFSET 0.00000 -0.82270 4.66577
							CHANNELS 3 Xrotation Yrotation Zrotation
							End Site
							{
								OFFSET 0.00000 0.00001 5.57762
							}
						}
					}
					JOINT RightShoulder
					{
						OFFSET -1.17512 -1.95853 6.34567
						CHANNELS 3 Xrotation Yrotation Zrotation
						JOINT RightArm
						{
							OFFSET -5.83645 0.00000 0.00000
							CHANNELS 3 Xrotation Yrotation Zrotation
							JOINT RightForeArm
							{
								OFFSET -10.88642 0.00000 0.00000
								CHANNELS 3 Xrotation Yrotation Zrotation
								JOINT RightHand
								{
									OFFSET -10.19495 0.00000 0.00000
									CHANNELS 3 Xrotation Yrotation Zrotation
									JOINT RightHandEnd
									{
										OFFSET -2.73592 0.00000 0.00000
										CHANNELS 3 Xrotation Yrotation Zrotation
										End Site
										{
											OFFSET -2.73592 0.00000 0.00000
										}
									}
									JOINT RightHandThumb1
									{
										OFFSET -1.09437 -1.82395 -0.72958
										CHANNELS 3 Yrotation Xrotation Zrotation
										End Site
										{
											OFFSET -2.64270 -0.70811 0.00000
										}
									}
								}
							}
						}
					}
					JOINT LeftShoulder
					{
						OFFSET 1.17512 -1.95853 6.34567
						CHANNELS 3 Xrotation Yrotation Zrotation
						JOINT LeftArm
						{
							OFFSET 5.83645 0.00000 0.00000
							CHANNELS 3 Xrotation Yrotation Zrotation
							JOINT LeftForeArm
							{
								OFFSET 10.88642 0.00000 0.00000
								CHANNELS 3 Xrotation Yrotation Zrotation
								JOINT LeftHand
								{
									OFFSET 10.19495 0.00000 0.00000
									CHANNELS 3 Xrotation Yrotation Zrotation
									JOINT LeftHandEnd
									{
										OFFSET 2.73592 0.00000 0.00000
										CHANNELS 3 Xrotation Yrotation Zrotation
										End Site
										{
											OFFSET 2.73592 0.00000 0.00000
										}
									}
									JOINT LeftHandThumb1
									{
										OFFSET 1.09437 -1.82395 -0.72958
										CHANNELS 3 Yrotation Xrotation Zrotation
										End Site
										{
											OFFSET 2.64270 -0.70811 0.00000
										}
									}
								}
							}
						}
					}
				}
			}
		}
	}
	JOINT RightUpLeg
	{
		OFFSET -3.48620 0.00000 -1.01844
		CHANNELS 3 Xrotation Yrotation Zrotation
		JOINT RightLeg
		{
			OFFSET 0.00001 0.00000 -16.68821
			CHANNELS 3 Xrotation Yrotation Zrotation
			JOINT RightFoot
			{
				OFFSET 0.00001 0.00000 -16.77536
				CHANNELS 3 Xrotation Yrotation Zrotation
				JOINT RightToeBase
				{
					OFFSET 0.00000 -4.94516 -1.79989
					CHANNELS 3 Xrotation Yrotation Zrotation
					End Site
					{
						OFFSET 0.00000 -2.82030 -0.00000
					}
				}
			}
		}
	}
	JOINT LeftUpLeg
	{
		OFFSET 3.48620 0.00000 -1.01844
		CHANNELS 3 Xrotation Yrotation Zrotation
		JOINT LeftLeg
		{
			OFFSET 0.00001 0.00000 -16.68821
			CHANNELS 3 Xrotation Yrotation Zrotation
			JOINT LeftFoot
			{
				OFFSET 0.00001 0.00000 -16.77536
				CHANNELS 3 Xrotation Yrotation Zrotation
				JOINT LeftToeBase
				{
					OFFSET 0.00000 -4.94516 -1.79989
					CHANNELS 3 Xrotation Yrotation Zrotation
					End Site
					{
						OFFSET 0.00000 -2.82030 -0.00000
					}
				}
			}
		}
	}
}
MOTION
Frames: 13
Frame Time: 0.008333
 2.6751 36.4852 -19.4300 -81.0107 3.8894 0.1116 3.0035 -4.3515 -0.5543 2.2968 -0.8147 0.1060 4.8169 0.5304 4.3075 -0.6005 0.2901 0.6384 -0.5154 -2.8305 1.5602 -7.3552 6.2042 1.4460 3.7004 -4.0152 7.5390 45.6648 -39.0787 54.5818 0.0000 0.0000 26.6078 -1.3252 -6.8072 -5.4701 0.0000 0.0000 -0.0000 -0.0000 0.0000 0.0000 0.1747 10.9042 -5.4498 27.5704 59.1438 -25.5408 -0.0000 -0.0000 -34.6300 0.1660 8.8344 15.5732 -0.0000 0.0000 0.0000 -0.0000 -0.0000 0.0000 -1.5839 -5.0424 -17.7075 18.8432 0.0000 0.0000 -9.7525 -2.9544 -3.2212 -11.1749 0.0000 -0.0000 -29.6204 -3.7041 7.1267 40.9977 0.0000 0.0000 -15.1144 8.0422 -7.1019 -3.4772 0.0000 -0.0000
 2.6953 36.4810 -19.4661 -80.9960 4.0474 -0.0498 3.0115 -4.4802 -0.5526 2.3051 -0.8091 0.1107 4.8540 0.5056 4.3529 -0.5389 0.2589 0.6595 -0.2729 -3.0394 1.4636 -6.9832 6.2276 1.3411 3.7333 -4.0791 7.4691 45.3373 -39.2625 54.2439 0.0000 0.0000 26.1357 -1.1099 -6.6650 -5.2440 -0.0000 0.0000 -0.0000 0.0000 -0.0000 -0.0000 0.2346 10.8220 -5.4519 28.5116 58.9572 -26.5616 -0.0000 -0.0000 -34.7325 -0.2590 8.7064 15.9599 0.0000 -0.0000 -0.0000 0.0000 0.0000 -0.0000 -1.6706 -5.1774 -17.4516 18.8651 0.0000 0.0000 -9.7523 -2.9626 -3.3647 -11.1395 0.0000 -0.0000 -29.7805 -4.2431 7.0060 42.2778 0.0000 0.0000 -15.6258 7.9972 -6.9942 -3.4856 0.0000 -0.0000
 2.7182 36.4796 -19.4922 -80.9891 4.1858 -0.2204 3.0170 -4.5714 -0.5430 2.2972 -0.8110 0.1131 4.8918 0.4703 4.3826 -0.4754 0.2336 0.6760 0.0028 -3.2424 1.3735 -6.5641 6.2164 1.2219 3.7585 -4.1312 7.3861 45.0265 -39.5134 53.9210 0.0000 0.0000 25.6415 -0.9504 -6.5591 -5.0753 0.0000 0.0000 -0.0000 0.0000 0.0000 -0.0000 0.2868 10.7438 -5.4271 29.5105 58.7332 -27.6382 -0.0000 -0.0000 -34.8036 -0.6923 8.5911 16.3222 -0.0000 -0.0000 0.0000 -0.0000 0.0000 0.0000 -1.7314 -5.2844 -17.2157 18.8816 0.0000 0.0000 -9.7231 -2.9801 -3.4768 -11.1240 0.0000 -0.0000 -29.8247 -4.7594 6.8843 43.4786 0.0000 0.0000 -16.1257 7.9025 -6.8431 -3.4490 0.0000 -0.0000
 2.7442 36.4813 -19.5092 -80.9929 4.2998 -0.3952 3.0170 -4.6282 -0.5261 2.2773 -0.8164 0.1137 4.9377 0.4303 4.3933 -0.4096 0.2136 0.6864 0.3170 -3.4391 1.2876 -6.1135 6.1715 1.0809 3.7521 -4.1609 7.2877 44.7610 -39.8334 53.6306 0.0000 0.0000 25.1254 -0.8516 -6.4978 -4.9656 -0.0000 -0.0000 0.0000 -0.0000 -0.0000 0.0000 0.3159 10.6617 -5.3818 30.5670 58.4838 -28.7632 -0.0000 -0.0000 -34.8336 -1.0896 8.4592 16.5929 -0.0000 0.0000 -0.0000 -0.0000 -0.0000 -0.0000 -1.7638 -5.3548 -17.0234 18.8916 0.0000 0.0000 -9.6615 -3.0033 -3.5365 -11.1323 0.0000 -0.0000 -29.7616 -5.2442 6.7718 44.5821 0.0000 0.0000 -16.5779 7.7740 -6.7054 -3.4203 0.0000 -0.0000
 2.7734 36.4863 -19.5218 -80.9954 4.3765 -0.6000 3.0205 -4.6535 -0.5086 2.2585 -0.8151 0.1154 4.9684 0.4011 4.4086 -0.3493 0.1965 0.6966 0.6547 -3.6295 1.2099 -5.6316 6.0935 0.9317 3.6999 -4.1586 7.1696 44.5623 -40.2293 53.3851 0.0000 0.0000 24.6115 -0.7703 -6.4615 -4.9846 0.0000 0.0000 0.0000 0.0000 -0.0000 0.0000 0.3313 10.5714 -5.3244 31.6470 58.2169 -29.9135 -0.0000 -0.0000 -34.8287 -1.2043 8.4845 16.7123 -0.0000 -0.0000 0.0000 -0.0000 0.0000 0.0000 -1.8056 -5.3724 -16.8485 18.9303 0.0000 0.0000 -9.5756 -3.0243 -3.5467 -11.1681 0.0000 -0.0000 -29.6083 -5.6948 6.7065 45.5777 0.0000 0.0000 -16.9547 7.6451 -6.5821 -3.4788 0.0000 -0.0000
 2.8054 36.4940 -19.5300 -80.9952 4.4193 -0.8341 3.0299 -4.6493 -0.4917 2.2425 -0.8054 0.1183 4.9740 0.3789 4.4296 -0.2971 0.1809 0.7061 1.0154 -3.8120 1.1463 -5.1229 5.9856 0.7858 3.6198 -4.1265 7.0364 44.4148 -40.6992 53.1676 0.0000 0.0000 24.1280 -0.6567 -6.4252 -5.1674 0.0000 -0.0000 -0.0000 -0.0000 0.0000 -0.0000 0.3346 10.4717 -5.2940 32.6953 57.9663 -31.0042 -0.0000 -0.0000 -34.8020 -1.1355 8.5671 16.6914 0.0000 -0.0000 -0.0000 -0.0000 0.0000 0.0000 -1.8617 -5.3418 -16.6866 19.0035 0.0000 0.0000 -9.4667 -3.0387 -3.5116 -11.2342 0.0000 -0.0000 -29.3609 -6.1122 6.6775 46.4742 0.0000 0.0000 -17.2671 7.5178 -6.4143 -3.5978 0.0000 -0.0000
 2.8416 36.5054 -19.5346 -80.9864 4.4092 -1.0840 3.0419 -4.5939 -0.4766 2.2244 -0.7895 0.1215 4.9561 0.3582 4.4451 -0.2516 0.1673 0.7093 1.3958 -3.9849 1.1004 -4.6011 5.8512 0.6489 3.5323 -4.0913 6.9013 44.2782 -41.2170 52.9381 0.0000 0.0000 23.6816 -0.5364 -6.3895 -5.4671 0.0000 -0.0000 0.0000 0.0000 -0.0000 -0.0000 0.3039 10.3717 -5.3475 33.6421 57.7775 -31.9022 -0.0000 -0.0000 -34.7742 -1.1404 8.4619 16.5639 -0.0000 0.0000 0.0000 -0.0000 -0.0000 0.0000 -1.9437 -5.2392 -16.5559 19.1197 0.0000 0.0000 -9.3354 -3.0498 -3.4281 -11.3413 0.0000 -0.0000 -29.0730 -6.4700 6.6653 47.3509 0.0000 0.0000 -17.4029 7.3395 -6.1931 -3.8480 0.0000 -0.0000
 2.8821 36.5200 -19.5357 -80.9569 4.3564 -1.3380 3.0418 -4.4842 -0.4627 2.1951 -0.7778 0.1221 4.9273 0.3264 4.4448 -0.2117 0.1586 0.7072 1.8006 -4.1460 1.0730 -4.0840 5.6996 0.5314 3.4533 -4.0637 6.7730 44.1250 -41.7611 52.6745 0.0000 0.0000 23.2700 -0.4419 -6.3625 -5.8320 0.0000 0.0000 -0.0000 0.0000 0.0000 -0.0000 0.2978 10.2913 -5.4040 34.5205 57.5722 -32.7682 -0.0000 -0.0000 -34.7205 -1.1781 8.2712 16.3913 -0.0000 0.0000 -0.0000 0.0000 0.0000 -0.0000 -2.0632 -5.0775 -16.4654 19.2728 0.0000 0.0000 -9.1719 -3.0452 -3.2986 -11.5154 0.0000 -0.0000 -28.7714 -6.7675 6.6581 48.2133 0.0000 0.0000 -17.3282 7.1347 -5.9598 -4.2359 0.0000 -0.0000
 2.9268 36.5350 -19.5294 -80.9462 4.2774 -1.5860 3.0457 -4.3611 -0.4434 2.1667 -0.7606 0.1219 4.8931 0.3066 4.4167 -0.1723 0.1530 0.6935 2.2233 -4.2991 1.0703 -3.5844 5.5231 0.4502 3.3887 -4.0305 6.6484 43.9674 -42.3359 52.4059 0.0000 0.0000 22.8867 -0.4016 -6.3477 -6.2082 -0.0000 0.0000 -0.0000 -0.0000 -0.0000 0.0000 0.3241 10.1916 -5.4588 35.3407 57.3743 -33.6306 -0.0000 -0.0000 -34.6616 -1.2249 8.0530 16.2348 -0.0000 -0.0000 0.0000 0.0000 -0.0000 0.0000 -2.1724 -4.8719 -16.4233 19.4628 0.0000 0.0000 -8.9881 -3.0143 -3.1146 -11.7507 0.0000 -0.0000 -28.3500 -7.0038 6.6523 48.9486 0.0000 0.0000 -17.1867 6.9621 -5.7540 -4.4835 0.0000 -0.0000
 2.9743 36.5486 -19.5150 -80.9435 4.2103 -1.8179 3.0415 -4.2462 -0.4153 2.1349 -0.7486 0.1181 4.8569 0.2830 4.3508 -0.1280 0.1524 0.6650 2.6452 -4.4407 1.0946 -3.0831 5.3452 0.4068 3.3444 -3.9767 6.5255 43.8102 -42.9354 52.1462 0.0000 0.0000 22.5424 -0.4052 -6.3432 -6.5968 -0.0000 0.0000 -0.0000 -0.0000 0.0000 0.0000 0.3894 10.0731 -5.4978 36.1040 57.1855 -34.5019 -0.0000 -0.0000 -34.6062 -1.3048 7.8501 16.1394 0.0000 0.0000 -0.0000 0.0000 -0.0000 -0.0000 -2.2742 -4.6672 -16.4260 19.6747 0.0000 0.0000 -8.7778 -2.9494 -2.8865 -12.0275 0.0000 -0.0000 -27.7689 -7.1996 6.6279 49.4534 0.0000 0.0000 -17.1180 6.8755 -5.6101 -4.4278 0.0000 -0.0000
 3.0256 36.5614 -19.4928 -80.9601 4.1461 -2.0391 3.0603 -4.1350 -0.3766 2.1088 -0.7407 0.1115 4.7708 0.2577 4.2575 -0.0730 0.1552 0.6236 3.0646 -4.5780 1.1435 -2.5221 5.2040 0.3624 3.3475 -3.9132 6.4085 43.6300 -43.5474 51.8698 0.0000 0.0000 22.2523 -0.4248 -6.3410 -7.0221 0.0000 -0.0000 0.0000 0.0000 -0.0000 0.0000 0.4886 9.9444 -5.5360 36.8105 57.0117 -35.3621 -0.0000 -0.0000 -34.5442 -1.4003 7.7303 16.1439 -0.0000 0.0000 0.0000 -0.0000 0.0000 0.0000 -2.3628 -4.4508 -16.4650 19.9171 0.0000 0.0000 -8.5451 -2.8480 -2.6114 -12.3470 0.0000 -0.0000 -27.0323 -7.3452 6.5892 49.7430 0.0000 0.0000 -17.0931 6.8611 -5.4927 -4.2203 0.0000 -0.0000
 3.0817 36.5745 -19.4657 -81.0026 4.0595 -2.2607 3.0973 -3.9969 -0.3368 2.0868 -0.7375 0.1029 4.6902 0.2331 4.1425 -0.0179 0.1612 0.5771 3.4357 -4.7163 1.1868 -1.9201 5.1025 0.3242 3.3639 -3.8199 6.2797 43.4594 -44.1624 51.6157 0.0000 0.0000 22.0101 -0.5269 -6.3070 -7.3646 0.0000 -0.0000 -0.0000 -0.0000 0.0000 0.0000 0.5581 9.7808 -5.5696 37.5109 56.8981 -36.2317 -0.0000 -0.0000 -34.4588 -1.4365 7.6643 16.1791 0.0000 -0.0000 0.0000 -0.0000 0.0000 0.0000 -2.4468 -4.1915 -16.5250 20.2108 0.0000 0.0000 -8.3055 -2.7119 -2.2825 -12.6908 0.0000 -0.0000 -26.1937 -7.4259 6.5490 49.9028 0.0000 0.0000 -16.9871 6.8770 -5.3485 -4.0686 0.0000 -0.0000
 3.1433 36.5880 -19.4340 -81.0646 3.9396 -2.4815 3.1298 -3.8237 -0.3080 2.0607 -0.7345 0.0925 4.6644 0.2135 4.0066 0.0290 0.1678 0.5320 3.7582 -4.8617 1.1976 -1.3161 5.0495 0.3171 3.3841 -3.6972 6.1343 43.3106 -44.7605 51.4011 0.0000 0.0000 21.8031 -0.7203 -6.2261 -7.5660 0.0000 -0.0000 -0.0000 -0.0000 0.0000 0.0000 0.5854 9.5738 -5.6073 38.2042 56.8637 -37.1049 -0.0000 -0.0000 -34.3461 -1.4144 7.5866 16.1757 0.0000 -0.0000 0.0000 -0.0000 -0.0000 0.0000 -2.5363 -3.8767 -16.6012 20.5609 0.0000 0.0000 -8.0723 -2.5434 -1.8969 -13.0415 0.0000 -0.0000 -25.2650 -7.4292 6.5021 49.9258 0.0000 0.0000 -16.8040 6.9015 -5.2067 -4.0106 0.0000 -0.0000
